<svg id="Layer_1" data-name="Layer 1" xmlns="http://www.w3.org/2000/svg" viewBox="0 0 512 512"><defs><style>.cls-1{fill:#707070;}</style></defs><title>vector-handdrawn</title><path class="cls-1" d="M74.89,47.44c.56-1,1.18-2,1.81-3Q75.74,45.93,74.89,47.44Zm5.22-7.77a58.05,58.05,0,0,1,4.24-4.78A54.85,54.85,0,0,0,80.11,39.67Zm-3.42,4.79c.68-1,1.39-2.08,2.14-3.08C78.09,42.38,77.37,43.4,76.69,44.46Zm3.42-4.79c-.44.56-.86,1.13-1.28,1.71C79.26,40.8,79.66,40.23,80.11,39.67Zm-5.87,9c.22-.41.42-.82.65-1.22C74.66,47.84,74.45,48.25,74.24,48.66ZM85,502.08a73.9,73.9,0,0,1-24.86-27.95,70.7,70.7,0,0,1-7-21.54,81.49,81.49,0,0,1-1-11.77c0-3.38,0-6.78,0-10.19.06-60.16.13-120.78.19-180.48,0-25,0-38.51-.34-44-.72-12.65-1.44-24.34-2.17-33.84-.12-1.58-.31,7.64-.41,15.61-.49,39.79-.17,86-.16,129.3,0,33.32.2,37.66.6,21.69.12-4.78.31-.87.46-.92,0,11.47,0,27,0,33.56l-.61,32.63L50,429.56q.07,6.38.14,12.71a77.83,77.83,0,0,0,1.84,14.94A74.22,74.22,0,0,0,85.76,504a66.06,66.06,0,0,0,14.15,6.56c6.18,1.94,7.18,1.63,4,.73A80,80,0,0,1,85,502.08Zm376.39-91.95-1,22.13c-.2,3.53-.3,6.59-.6,10a65.77,65.77,0,0,1-1.56,10.37,67,67,0,0,1-18.82,36C429.12,498.72,415.25,505.4,402,507c-10,1.16-17.67.49-25.42.68l-21.8.06-41.46.23-136.74.51-16.53.63c-2.12.12.36.28,4.91.39,14.08.33,40.13.63,43.38,1,6.71.7,44.86.49,70.86.61,22.09.1,34.71-.05,43.41-.37,9.09-.34,23.26-.66,39.66-.93l18.72-.12h10.92c3.47-.1,6.65-.24,8.39-.41,24-2.23,45.82-18.51,55-39.63a80.8,80.8,0,0,0,3.1-8c.68-2.75,1.54-5.44,2-8.2a61,61,0,0,0,.94-8.23l.19-4.08v-3.6C461.45,427.95,461.43,418.79,461.42,410.14ZM49.78,83.52l.15-9.12A75.75,75.75,0,0,1,51,63.51a70,70,0,0,1,6.77-20.73A73.57,73.57,0,0,1,87.24,11.63,71.14,71.14,0,0,1,107.37,3.8,72.89,72.89,0,0,1,118,2.17L123.43,2c1.82-.06,3.08,0,4.65,0l8.82-.1-8.81.45,78.47.23L234,2.39c41.24-.6,23-1.62-28.54-2.07L163.68.07,142.43,0H131.74C128,0,125-.11,120.25.19A74.47,74.47,0,0,0,72.57,20.78a75.8,75.8,0,0,0-23,46.34c-.21,2.29-.29,4.61-.41,6.93s0,3.9-.05,5.9V91.38c0,7.65,0,15.34,0,23l.18,5.08ZM329,181.72A60.85,60.85,0,0,0,340.38,185c1.29.22.18-.2-2.88-1.18-1.83-.59-.26-.38-.24-.54a77.12,77.12,0,0,0,13.14,2.25c5.9.55,8.71.69,11.68.88l32.47-.66c1.67,0,3.54-.1,4.23-.17,7-.72-10.13-1.64-28-1.63l-14.84,0a74.29,74.29,0,0,1-17.34-2.26,70.35,70.35,0,0,1-30.44-16.32c-7.17-6.54-10-11-11.52-12.5a100.67,100.67,0,0,1-8.42-10.57c-.36-.54,1,2.93,2.42,5.8C297.83,162.49,312.59,175.59,329,181.72Zm133.83-3.39c.11.49-.56.28-.8.45l-4.22,1-2.26.53v2.12l-.05-2.11h-.05c-.06,8.14-.11,16.21-.17,24.44q0,88.74,0,177.56c0,7.82,0,16,0,23.43-.06,30.49-.12,39.21.23,35.84.22-1.59.32-.63.27,2.17a53.56,53.56,0,0,1-1.63,12.8C451.89,467.51,444,481,434.49,489a63.53,63.53,0,0,1-21.23,12.41c-7.79,2.83-16.56,3.68-24.62,3.59l-49,.22-100.14.37-81.68.2-20.42,0c-6.79,0-13.38.28-20.65-.43a64.68,64.68,0,0,1-55.48-48.74,69.06,69.06,0,0,1-1.65-9.28c-.14-3.1-.39-6.35-.31-9.19q0-8.77,0-17.48c0-11.63.07-23.21.1-34.85,0-23.28,0-46.76,0-71.22,0-6.32.13-21.56.25-25.16.23-6.88.49-8.35.76-12.57,0-9.32.07-20.39.12-33.54.07,3,.12,5.39.24,10.66-.06-27.31-.11-50.54-.16-73.33s.16-44.9.26-69.84l-.37-4.25c0-7.76,0-15.57,0-24.4,0-2.21,0-4.47,0-6.82s.16-5,.47-7.6a65.87,65.87,0,0,1,4.24-16.54c-3.89,10.53-3.73,15.37-3.44,12.22.34-.73,2.19-6.76.81.07-1.53,5.62-.68,26.37-.82,41.07,0,15.84,0,22.6.29,27.17.2,3.34.35,24.23.52,37.4.41,32.33,1,21.7,1.48,23.73.18.71.37-1,.62-1.91,0-2,.1-10.89.24-26.87.13,17.33.22,29.34.34,44.47L65,206c0,6.84,0,17.18,0,19.94l1.14,61c.55,21.54,1.24-25.38,1.3-61.76,0-46,0-93,.05-139.52C67.4,75.88,67.21,67,70,58.29a58.39,58.39,0,0,1,4.21-9.63,56,56,0,0,0-6.5,25.26l0,46.6.15-.06c0-10.35,0-20.72.07-31,0-5.09,0-9.85,0-14.33l.36-6c.32-1.92.56-3.79.92-5.58a51.72,51.72,0,0,1,7.56-17.91A59,59,0,0,1,91.31,30.33,55.67,55.67,0,0,1,120,19.61c3.48-.26,7.68-.26,12-.25l13.09,0,26.84,0c17.67,0,34.2.08,45.47.37,8.47.22,1.37.56,1.37.84h82.57V15.77h-.53c-1.75,0-3.09-.09-4-.16-1.89-.14-2.17-.35-.89-.64,2.31-.51,3.55-1,5.51-1.62l6.31-.09c3.39,3.22,5.36,4.86,4.48,3.45L353,57.34l-.55-.47L413,117.34c.35-.35,7.37,6.59,12.52,11.53l23.88,23.23c2.51,2.35,3.94,4.67,6,7,.52.61.81,1.12,1.22,1.68.12.73.09,1.56.14,2.34l.19,4.75.19,4.78c0,.78.11,1.64,0,2.35l-1.63.18v2.29l1.73-.32,1.53-.28c.39-.2,1.33.11,1.06-.71l-.14-3.49q-.14-3.47-.27-6.9c-.21-2.16.19-4.9-.93-6.14l-4.65-6.74-6.77-6.65-5.65-5.58L435.79,135,418,117.21l-3.72-5.28-4.4-5.86c8,8,18.18,17.69,27.66,27.91,1.43,1.54,7.06,7.09,8.69,8.56l8.35,7.74,1.91,1.75c.47.56.76,1.08,1.13,1.59l1.9,2.77,1.76,2.69a4.59,4.59,0,0,1,.74,1.5,4.43,4.43,0,0,1,.34,1.91c.16,3.24.3,7.27.4,12.34q0,1.12,0,2.3Zm-73.48-6.49-9.73.15,12.57.14,15.53-.42c-6-.32-18.95-.28-31.71.11l13,0Zm30.46-13,10-.07c1.5,0,1.15-.05,1.19-.07l0-.06,0-.08s0,0,.07,0,.31-.09.3-.49c0,0,0,0,0-.1l-.83-.88-1.85-1.94-4.27-4.41-9.14-9.36.45.71a84.92,84.92,0,0,1-6.53-5.57c-6.2-6-12.66-12.49-18.74-19.05-4.32-4.66-11.61-12-18.39-19l2.45,1.32c-19.35-19.59-10.88-12.32-9.58-12l-21-20.8C333.56,56.49,322.45,45.48,313.74,36L303.74,26l-.09-.11c.28,12.69,1.07,6.35,1.37,19.46.13-5.52.22-9.22.32-13.75.28,4.52.49,9.87.95,7.25.36-2,.82,6.51,1.25,9.34.17,1.14.38-1.18.57-.55a15.06,15.06,0,0,1,.63,4.8c.1,7.33.81,10.77.3,22.32,0,1,0,3.8,0,5.44,0,9.44.1,18.64.14,27.83v3.45l.12,2.74a31.29,31.29,0,0,0,.51,5.3,49.45,49.45,0,0,0,2.73,10.36,46.45,46.45,0,0,0,35,28.32,58.42,58.42,0,0,0,8.69.74l11.27,0ZM305.49,83.67c0-2.43.06-4.9.1-7.35l-.2-.94-.16,22.46-.08,11.23,0,2.79.11,2.35a29.41,29.41,0,0,0,.39,4.68l.44,1.82c0-1.68-.26-3.09-.26-5l-.19-4.28v-5.15c0-3.45,0-6.91,0-10.34C305.55,91.81,305.52,87.76,305.49,83.67ZM302.86,24.3l.3-.06h0l-.32,0ZM303,25l.48,3.19c0-.08,0-1.14.06-2.54Zm147.76,146.5H449.6c0,.1,0,.19,0,.29A5.26,5.26,0,0,0,450.73,171.54Zm-24.76.13c.13,0,.19.11.33.11l15.65,0,.41,0c0-.08,0-.16,0-.24l-13,0Zm23.63,6.92a14.6,14.6,0,0,0,1.52-.27l1.3-.24c0-.83,0-1.67,0-2.5l-2.8.32C449.6,176.8,449.6,177.7,449.6,178.6ZM302.29,20.48h5.16l-5.12.25.2,1.31a10.07,10.07,0,0,1,1.68-.32,31.64,31.64,0,0,1,2.59,2.22l7.59,7.39c6.4,6.33,14.6,13,12.72,10.44-2.72-3.78,7.15,5.14,19.54,17.62l20.71,20.74c1.5,1.49,3.21,3,4.24,3.82,3.75,3.17,17.27,16.11,24.65,23.65,1.44,1.47,3.27,3.37,3.94,4.14,4.63,5.31,4.54,5.23,12.08,12.2l-10-11.92c-1.11-1.35-.68-1.22-1-1.77l14.05,14.09,4.56,4.79,28.36,28.26c1,1.17,2.53,2.08,3,3.45l.16,4.7.17,4.71,0,.72a2.26,2.26,0,0,0,.7-1.35c0-.46,0-.86,0-1.33a7.62,7.62,0,0,0-.32-1.58l-.1-3.84a8,8,0,0,0-.23-2.36L419.18,128,350.81,59.83q-16.43-16.35-26.66-26.66l-12-11.87-5.52-5.48-5.07-.05ZM73.39,119.86c.05,2.26.11,4.55.16,6.83.13-6.09.36-11.34.37-18.44,0-10.26,0-20.72,0-31.23a51.93,51.93,0,0,1,5.86-25.46,50.86,50.86,0,0,1,21.71-21.4A49.89,49.89,0,0,1,119.21,25l2.36-.31c-19,.74-37,13.42-44.17,31.15a55.3,55.3,0,0,0-3.56,13.77c-.15,2.51-.36,4.47-.35,7.45l0,8.56ZM64.65,446.63c.24,2.14.59,4.2,1,6.21A55.3,55.3,0,0,1,64.65,446.63ZM131.07,501c-4.57-.17-10.43.16-17-1.13a60.81,60.81,0,0,1-21.12-8.13c-12.32-7.26-22.87-21-26.81-36.95a58.43,58.43,0,0,0,14.3,27l.57.7a63.21,63.21,0,0,1-6.54-8,62.38,62.38,0,0,1-7.93-17.07,57.85,57.85,0,0,0,10.62,21.07,58.6,58.6,0,0,0,10,10,59.76,59.76,0,0,0,21.21,10.55C115.73,501,123.2,501.17,131.07,501Zm36.87-12.85,30.49-.07c51.53-.43,118.14-.26,159.14.29l34,.22a52.94,52.94,0,0,0,15.77-2.26,47,47,0,0,0,13.61-7l-1.66,1,3.47-2.84,3-3a55.33,55.33,0,0,0,6.82-9.15,45.17,45.17,0,0,0,5.65-14.13c1.09-5.18,1.19-9.66,1.15-17.18.09-13.68.19-27.47.28-41.12.1-19.37.26-51,.41-80.68l.81,8.12c.14-84,1-50,1.71-46.58-.07-32.15-.14-61.48-.2-90.22,0-.62,0-1.26,0-1.88a67.52,67.52,0,0,1-8-.44c-.44-.09-1.61-.17-3.22-.25l-3.79-.24-8.44-.48c-1.49-.11-2.31-.27-1.61-.39,1.49-.25,4.17-.49,5.42-.63l13.27-.13c2.08-.07,4.29,0,6.44,0v-2.74l-52.08.56-11.25,0-22.94-.15a69.41,69.41,0,0,1-24.29-4.74A46.23,46.23,0,0,1,324,168a28.41,28.41,0,0,1-3.32-2.91,71.5,71.5,0,0,1-8.89-7.32l2.87,2.28a62.9,62.9,0,0,1-15.5-19.55,61.53,61.53,0,0,1-6.33-22.91l-.44-1.43c-.38-5.45-.11-10.37-.16-18.18.11,3.51.15,5,.12,4,.32-.24.61-2.24.81,0,.24,1.79.1,8.45.48,13.46a35.53,35.53,0,0,0,1.39,9c.24.52.83,2.47,1.51,4.8s1.88,4.93,2.72,6.94c2.44,4.8,3.59,6.19,4.13,6.5s.36-.41.75-.25.14-.48.21-.84a54.15,54.15,0,0,1-3.54-7.84A57.37,57.37,0,0,0,307.91,146l-.76-.47a55.05,55.05,0,0,0,3.91,5A53.11,53.11,0,0,0,326.53,162c6.15,2.85-6.84-4.33-13.78-13.22a58.35,58.35,0,0,1-13.61-39.66c0-6.27.07-12.55.11-19.2l.11,15.31c0,5.23,0,10,.76,14.66l.14,0a68.18,68.18,0,0,1-.57-9.5c0-6.68,0-11.64.33-15.8.26-3.82.3-10.11.25-18.7-.06-10.38-.33-24.67.25-32.06.22-2.78.56-.45.84-.45V24.74l-1.4-.05c.38,0,1.12-.06,1.4-.09V24c-1.11-.09-2.45-.19-2.94-.29s-.67-.22-.07-.34c.3-.06.76-.12,1.4-.19.37,0,1.15-.1,1.61-.14V20.78L264.8,22.57l17.73.14c-52.82.2-26.61,1.11-69.83,1.43l41.94.32c-13.79.28-30.11.49-22.11.95,6.25.36-19.85.82-28.47,1.25-3.48.17,3.59.38,1.68.57a135,135,0,0,1-14.64.63c-22.21.13-33.14.75-67.75.37a49.31,49.31,0,0,0-12.62,1.95A48,48,0,0,0,85,49.69a44.51,44.51,0,0,0-6.29,14.86c-1.23,5.42-1.33,10-1.28,17.73-.08,28-.16,56-.24,84.58,0,36.25-.09,77.77-.13,116.58.08,45.94.17,91.35.25,137.29v19.9a51.52,51.52,0,0,0,2.42,15.2A47.86,47.86,0,0,0,98,480a48.77,48.77,0,0,0,13.92,6.37,53.94,53.94,0,0,0,7.54,1.48c2.6.11,4.89.33,8.54.27ZM452.43,181l-2.83.67c0,26.93,0,54,0,80.79,0,6.44.18,13.28.3,17.39.42,14.92.85,72,.75,104.16,0,6.28-.11,14.32-.13,17.43-.24,10.71-.36,16-.37,22.48,0,3.25,0,6.8.07,11.51s.32,10.3-1,17.61c.43-1.92.72-3.87,1.1-5.81l.5-5.89c.12-4.11.24-8.19.35-12.19.23-8,.46-15.66.66-22.63a25.58,25.58,0,0,1,.57-5.87v30.38c0,5.05.1,10.17-.26,15.06a58.38,58.38,0,0,1-3.1,14.45,57.1,57.1,0,0,1-9.53,17.15,58.85,58.85,0,0,1-38.91,22.31,111.53,111.53,0,0,1-15.48.61l-62.76.06-125.5.13-10.19.06a7,7,0,0,0,1,.11l200.34.15c10.17.19,20.42-1,29.6-5.5a59.64,59.64,0,0,0,23.32-19,58.78,58.78,0,0,0,10.32-22.43A75.11,75.11,0,0,0,452.9,439c.14-7.34.37-8.94.75-6.31-.14-22.62-.24-40.11-.35-58.13,0-12.1-.1-24.76-.15-37.46C452.89,280.87,452.66,230.54,452.43,181ZM281.77,122a54.78,54.78,0,0,1-.4-7.22c-.08-2.58,0-4.53.09-6.44l.46-11.78.92-23.55-.1-2.89.44,2.89c.08-9.13.16-17.35.23-25.73,0-2.83-.08-6.82-.17-9-.6-13.52-1.62-7.54-2.07,9.36-.48,18-.25,37.23-.35,55.81,0,2.46,0,5,0,7.46.06,2.7.21,6.09.48,9.07ZM242.33,281.17,241.93,269c0-.63-.06-1.32-.1-1.58-.43-2.62-1,3.79-1,10.48,0,6.93-.08,13.91-.12,20.79,0,.72,0,1.1.2,1.08a1,1,0,0,0,.45-.15,4.15,4.15,0,0,0,1-.85,1.54,1.54,0,0,0,.12-.25l0,0a.81.81,0,0,0,.12-.19c0-2.16,0-4.37-.06-6.5,0-4.08-.12-4.61-.36-2.66-.07.59-.18.11-.28.11,0-1.41,0-3.31,0-4.11Zm9.31-17.83c1.11-.2,2.85-.4,4.86-.56.82-.07,3.78-.11,4.56-.07,2.6.15,5.22.17,7.71.15l6.22-.07-.66-.32-1.28-.3-2.38-.65-9.39,0c-4.35-.09-7.24.07-10.78.15L238,262v.23a12.79,12.79,0,0,0,.38,1.38c.07.18.17.09.23-.12l.17-.7a7.28,7.28,0,0,1,1.83.41c.75.42,1.34.29,5.67.36A27.7,27.7,0,0,0,251.64,263.34Zm18.92,36.55c1.06,0,2.55,0,3.36-.1,5.05-.36,2.82-1-3.5-1.24-6.72-.29-13.92-.15-20.86-.21H244l-.62.11,17.61,1.1,1.08-.06-1.08.27ZM199.35,412.8h-2l-10.4.09-15.39-.15-6.56-.05c0-6.14,0-12.8,0-19.15-.05-5.63-.1-11.2-.15-16.83,0-8.8,0-17.65,0-26.47,0-.93,0-1.91,0-2.89l4.45,0,16.4-.13c1.27,0,2.47,0,3.67.08a43.53,43.53,0,0,1,.14-9.54,27.64,27.64,0,0,1,.3-2.76A63.78,63.78,0,0,1,199,308.27a71.79,71.79,0,0,1,12.2-15.12,68.43,68.43,0,0,1,14.65-10.71l0-3.3c0-8.8,0-17.65,0-26.47,0-.93,0-1.91,0-2.89l4.45,0,16.4-.13c3.46,0,6.76.14,9.27.31,2.11.14,6,.15,9.06.21l-.31-.11a20.1,20.1,0,0,1,3.2-.41l5-.05,8.49.17,9.86.15-.09,9.52-.48-1.68c0,2.43,0,4.44,0,6.11l-.08,3.43a3.93,3.93,0,0,1-.25,1.58c-.19.19-.43-1-.65-1.16,0,3.94.08,7.54.12,11.06,0,1,0,2.1,0,3.16L291.9,283c1.86,1.18,3.91,2.37,5.62,3.57l-.27-.34a34.28,34.28,0,0,1,3.75,2.28,51.56,51.56,0,0,1,9.85,9.45,76.85,76.85,0,0,1,7.62,11.12l-1.12-.91c6.49,12.33,3.18,7.64,2.68,7.26a66.72,66.72,0,0,1,4.76,14,78,78,0,0,1,1.32,18.06,14.84,14.84,0,0,1,2.73-.34l5-.05,8.49.17,9.86.15-.09,9.52-.48-1.68c0,2.43,0,4.44,0,6.11l-.08,3.43a3.93,3.93,0,0,1-.25,1.58c-.19.19-.43-1-.65-1.16,0,3.94.08,7.54.12,11.06,0,5.5,0,11.35-.26,16.14,0,1.13,0,3.77,0,5.49l-.21,4.72-.27-2.77c-.19,3.29-.45,5-.78,1.92-.08-.7-.21.09-.32-.06-.28-.4-.59-1.77-.66-8.23,0-3.37-.68-7.3-1-6.12-.45,1.72-.86-3.25-.84-9.82,0-3.65,0-7.32,0-11a16.78,16.78,0,0,0-.18-2.13c-.18-1.56-.36-6.39-.43-10.59l-4.82,0-2.56-.08a29.91,29.91,0,0,0-6.95,0l6,.8c.71.1.5.23.71.34h-7.66l-2.47-.09-31.29.15-1.32,0a.68.68,0,0,0,.19.06l25.08.09,7.55,0c5,0,6.41.1,5.77.55l7.26-.21,2.95-.07c0,.59,0,1.2,0,1.82,0,7.52.22,13.81.45,20.14l.08,7.54c0,3.95.07,7.94.11,11.84.09,6.19-.07,8.6-.49,7.42a17.86,17.86,0,0,0-1-2.06c0-3-.19-4.93-.5-4.18,0-7.3-.08-14.4-.13-21.51l.06.46.11-3.2v-17H337c-3.29-.06-4.68,0-4.17.16.76.37-3.41.41-6.31.51l-23.81.53-5.35.09c.07,3.47.14,6.94.2,10.23,0,1.23,0,2.79,0,4.21,0,5.79-.22,11.31-.09,17.3a30.38,30.38,0,0,1-.15,3.08,6.88,6.88,0,0,1-.46,1.54c0,1,0,2.18-.07,3.59l-.15-1c0,2.16.06,4.07.09,5.87h1.34l7.2.15.52-.22,6.73,0-1.49.07c.09.19.84.37,0,.49-.65.1-3.19.17-5,.18a13.54,13.54,0,0,0-3.24.18c-.38.12-2.76.21-4.35.31-3.93.25-3.1.58-3.61.89-.2.11-.08.22-.11.37l3.51.14-4.23.14-.07-1.91.2.19c0-.92,0-2.29,0-2.7-.22-2.81-.43-6.16-.68-8-.33-2.53-.74,2.59-.78,8.9,0,1.6,0,3.21,0,4.85h15.72l7.18.06-11.45.14v.09l3.8,0a55.72,55.72,0,0,1,5.9.2,69.77,69.77,0,0,0,7,.15,118.42,118.42,0,0,1,12,.15c1,.13.17.34.17.51h10.87l-5.23,1.25,2.17.08c-6.48.12-3.26.66-8.56.86l5.14.19c-1.69.17-3.69.29-2.71.57.77.22-2.43.49-3.49.75-.43.1.44.23.21.34a3.73,3.73,0,0,1-1.79.38c-2.74.06-4,.49-8.34.18h-2l-10.4.09-15.39-.15-6.56-.05c0-6.14,0-12.8,0-19.15-.05-5.63-.1-11.2-.15-16.83,0-8.8,0-17.65,0-26.47,0-.93,0-1.91,0-2.89l4.45,0,16.4-.13c3.46,0,6.76.14,9.27.31l1.55.07a71.94,71.94,0,0,0-1.37-16.32,3.66,3.66,0,0,1,.16.52c-.21-1.24-.5-2.45-.8-3.69a60.13,60.13,0,0,0-11.64-22.75l-2.29-2.51c-2.92-3.33-4.09-3.94-3.8-3.54.44.85-3.21-2.42-6.09-4.26a29.69,29.69,0,0,0-3.12-1.75c0,.54,0,1.11-.07,1.63,0,1.13,0,3.77,0,5.49l-.21,4.72-.27-2.77c-.19,3.29-.45,5-.78,1.92-.08-.7-.21.09-.32-.06-.28-.4-.59-1.77-.66-8.23,0-3.37-.68-7.3-1-6.12-.45,1.72-.86-3.25-.84-9.82,0-3.65,0-7.32,0-11a16.78,16.78,0,0,0-.18-2.13c-.18-1.56-.36-6.39-.43-10.59l-4.82,0-2.56-.08a29.91,29.91,0,0,0-6.95,0l6,.8c.71.1.5.23.71.34h-7.66l-2.47-.09-31.29.15-1.32,0a.68.68,0,0,0,.19.06l25.08.09,7.55,0c5,0,6.41.1,5.77.55l7.26-.21,2.95-.07c0,.59,0,1.2,0,1.82,0,7.52.22,13.81.45,20.14l.08,7.54c0,3.95.07,7.94.11,11.84.09,6.19-.07,8.6-.49,7.42a17.86,17.86,0,0,0-1-2.06c0-3-.19-4.93-.5-4.18,0-7.3-.08-14.4-.13-21.51l.06.46.11-3.2v-17h-5.87c-3.29-.06-4.68,0-4.17.16.76.37-3.41.41-6.31.51l-23.81.53-5.35.09c.07,3.47.14,6.94.2,10.23,0,1.23,0,2.79,0,4.21,0,5.79-.22,11.31-.09,17.3a30.38,30.38,0,0,1-.15,3.08,6.88,6.88,0,0,1-.46,1.54c0,1,0,2.18-.07,3.59l-.15-1c0,2.16.06,4.07.09,5.87h1.34l7.2.15.52-.22,6.73,0-1.49.07c.09.19.84.37,0,.49-.65.1-3.19.17-5,.18a13.54,13.54,0,0,0-3.24.18c-.38.12-2.76.21-4.35.31-3.93.25-3.1.58-3.61.89-.2.11-.08.22-.11.37l3.51.14-4.23.14L233,306l.2.19c0-.92,0-2.29,0-2.7-.22-2.81-.43-6.16-.68-8-.33-2.53-.74,2.59-.78,8.9,0,1.6,0,3.21,0,4.85h15.72l7.18.06-11.45.14v.09l3.8,0a55.72,55.72,0,0,1,5.9.2,69.77,69.77,0,0,0,7,.15,118.42,118.42,0,0,1,12,.15c1,.13.17.34.17.51h10.87l-5.23,1.25,2.17.08c-6.48.12-3.26.66-8.56.86l5.14.19c-1.69.17-3.69.29-2.71.57.77.22-2.43.49-3.49.75-.43.1.44.23.21.34a3.73,3.73,0,0,1-1.79.38c-2.74.06-4,.49-8.34.18h-2l-10.4.09-15.39-.15-6.56-.05c0-6.14,0-12.8,0-19.15,0-.39,0-.78,0-1.17a44.87,44.87,0,0,0-4.17,3.14c-.72.53-2.33,2-2.77,2.25a9.21,9.21,0,0,1-1.64.87c-1,.85-2,2.1-3.34,3.45l.92-1.23a58.59,58.59,0,0,0-6.35,8.37,72.43,72.43,0,0,0-4.84,8.77c0,.24,0,.42,0,.66a58.42,58.42,0,0,0-2.47,7.45l.36-1.71c-.21,0-.6.85-.47-.13,0-.81,1.07-3.61,1.76-5.64s1.37-3,1.46-3.67a28.09,28.09,0,0,1,2.32-4.94c2.24-4.18,1.2-3,1.09-3.46,0-.14-.28,0-.47,0l-2.21,3.36a46.68,46.68,0,0,1,3.5-5.67l-.07.43,1.79-2.39a75.9,75.9,0,0,1,5.78-7.14c2.2-2.46-3.5,1.93-7,6.32a60.36,60.36,0,0,0-10.33,18.6,75,75,0,0,0-2.46,8.63c.5-2.33,1.08-4.66,1.72-7,.85-2.23,1.48-4.56,2.53-6.71l-.08,0a36.63,36.63,0,0,0-1.81,4.42c-1.18,2.92-1.62,5.22-2.31,7.06-.69,1.69-1.09,4.66-1.58,8.68-.22,3.15-.21,6.74-.26,9.84l.44,0c2.11.14,6,.15,9.06.21l-.31-.11c.33,0,.62-.1.91-.15,0-2.68.08-5.34.3-7.78l.21,1.16v-1.15a53.7,53.7,0,0,1,5.47-17.51l-.19.62c-.71,1.79-1.36,3.65-2,5.43a56.53,56.53,0,0,0-2.06,10.65l-.28,5.54-.07,2.83c.27,0,.55,0,.91-.06l5-.05,8.49.17,9.86.15-.09,9.52-.48-1.68c0,2.43,0,4.44,0,6.11l-.08,3.43a3.93,3.93,0,0,1-.25,1.58c-.19.19-.43-1-.65-1.16,0,3.94.08,7.54.12,11.06,0,5.5,0,11.35-.26,16.14,0,1.13,0,3.77,0,5.49l-.21,4.72-.27-2.77c-.19,3.29-.45,5-.78,1.92-.08-.7-.21.09-.32-.06-.28-.4-.59-1.77-.66-8.23,0-3.37-.68-7.3-1-6.12-.45,1.72-.86-3.25-.84-9.82,0-3.65,0-7.32,0-11a16.78,16.78,0,0,0-.18-2.13c-.18-1.56-.36-6.39-.43-10.59l-4.82,0-2.56-.08a29.91,29.91,0,0,0-6.95,0l6,.8c.71.1.5.23.71.34H208.5l-2.47-.09-31.29.15-1.32,0a.68.68,0,0,0,.19.06l25.08.09,7.55,0c5,0,6.41.1,5.77.55l7.26-.21,2.95-.07c0,.59,0,1.2,0,1.82,0,7.52.22,13.81.45,20.14l.08,7.54c0,3.95.07,7.94.11,11.84.09,6.19-.07,8.6-.49,7.42a17.86,17.86,0,0,0-1-2.06c0-3-.19-4.93-.5-4.18,0-7.3-.08-14.4-.13-21.51l.06.46.11-3.2v-17h-5.87c-3.29-.06-4.68,0-4.17.16.76.37-3.41.41-6.31.51l-23.81.53-5.35.09c.07,3.47.14,6.94.2,10.23,0,1.23,0,2.79,0,4.21,0,5.79-.22,11.31-.09,17.3a30.38,30.38,0,0,1-.15,3.08,6.88,6.88,0,0,1-.46,1.54c0,1,0,2.18-.07,3.59l-.15-1c0,2.16.06,4.07.09,5.87h1.34l7.2.15.52-.22,6.73,0-1.49.07c.09.19.84.37,0,.49-.65.1-3.19.17-5,.18a13.54,13.54,0,0,0-3.24.18c-.38.12-2.76.21-4.35.31-3.93.25-3.1.58-3.61.89-.2.11-.08.22-.11.37l3.51.14-4.23.14-.07-1.91.2.19c0-.92,0-2.29,0-2.7-.22-2.81-.43-6.16-.68-8-.33-2.53-.74,2.59-.78,8.9,0,1.6,0,3.21,0,4.85H186.5l7.18.06-11.45.14v.09l3.8,0a55.72,55.72,0,0,1,5.9.2,69.77,69.77,0,0,0,7,.15,118.42,118.42,0,0,1,12,.15c1,.13.17.34.17.51H222l-5.23,1.25,2.17.08c-6.48.12-3.26.66-8.56.86l5.14.19c-1.69.17-3.69.29-2.71.57.77.22-2.43.49-3.49.75-.43.1.44.23.21.34a3.73,3.73,0,0,1-1.79.38C205,412.68,203.67,413.1,199.35,412.8ZM242.24,313c1.15.08,1.5.22,2.46.22l7.69,0,4.58,0,2.75.06.35-.12-16.79-.19Zm61,97.55c1.15.08,1.5.22,2.46.22l7.69,0,4.58,0,2.75.06.35-.12-16.79-.19Zm-8.47-43.06-.25-6a115.74,115.74,0,0,0,.07,12c0-1.81,0-3.34,0-4.88l0-.11.09,3.64C294.7,369.72,294.72,368.31,294.74,367.46Zm-5.13-77.25c0,.09,0,.19,0,.29a48.81,48.81,0,0,1,5.87,3.88c4.82,3.66,5.78,5.19,5,4.91a60,60,0,0,1,6,6.17c1.08,1.43,2.32,2.85,3.33,4.43a66.14,66.14,0,0,1,9.4,22.09,54.54,54.54,0,0,1,1.07,9.11c.13,2.19.11,4.34.13,6.5l3.22.06c-.22-2.6-.58-4.53-.79-3.55s-.37.11-.67-2.23-.52-5.91-1.27-10a66.33,66.33,0,0,0-3.9-13.11,26,26,0,0,0-1.32-2.33,98.24,98.24,0,0,0-8.85-13.12l-1.72-2c-2-2.63-2-2.58-5.65-5.58a50.66,50.66,0,0,1,4.57,5.53c.46.66.25.61.34.88a72.5,72.5,0,0,0-6.49-6.31L295.44,294A54.22,54.22,0,0,0,289.61,290.21Zm-56-14.25c0-1.81,0-3.34,0-4.88l0-.11.09,3.64c0-2.44.07-3.84.09-4.7l-.25-6A115.74,115.74,0,0,0,233.59,276Zm-42,61.12.1.47a69.06,69.06,0,0,1,5.74-21.36l.39-1a19.17,19.17,0,0,0-1.45,2.63,64.61,64.61,0,0,0-3.1,9.72,43,43,0,0,0-1.12,6C192,334.67,191.71,335.87,191.6,337.08Zm-19,36.43c0-1.81,0-3.34,0-4.88l0-.11.09,3.64c0-2.44.07-3.84.09-4.7-.09-2.11-.17-4-.25-6A115.74,115.74,0,0,0,172.62,373.51Zm26.48,37.1-16.79-.19-1,.1c1.15.08,1.5.22,2.46.22l7.69,0,4.58,0,2.75.06Zm-17.74-31.89L181,366.58c0-.63-.06-1.32-.1-1.58-.43-2.62-1,3.79-1,10.48,0,6.93-.08,13.91-.12,20.79,0,.72,0,1.1.2,1.08a1,1,0,0,0,.45-.15,4.15,4.15,0,0,0,1-.85,1.54,1.54,0,0,0,.12-.25l0,0a.81.81,0,0,0,.12-.19c0-2.16,0-4.37-.06-6.5,0-4.08-.12-4.61-.36-2.66-.07.59-.18.11-.28.11,0-1.41,0-3.31,0-4.11Zm9.31-17.83c1.11-.2,2.85-.4,4.86-.56.82-.07,3.78-.11,4.56-.07,2.6.15,5.22.17,7.71.15l6.22-.07-.66-.32-1.28-.3-2.38-.65-9.39,0c-4.35-.09-7.24.07-10.78.15l-12.47.3v.23a12.79,12.79,0,0,0,.38,1.38c.07.18.17.09.23-.12l.17-.7a7.28,7.28,0,0,1,1.83.41c.75.42,1.34.29,5.67.36A27.7,27.7,0,0,0,190.67,360.89Zm18.92,36.55c1.06,0,2.55,0,3.36-.1,5.05-.36,2.82-1-3.5-1.24-6.72-.29-13.92-.15-20.86-.21H183l-.62.11,17.61,1.1L201,397l-1.08.27Zm93.71-18.72-.39-12.14c0-.63-.06-1.32-.1-1.58-.43-2.62-1,3.79-1,10.48,0,6.93-.08,13.91-.12,20.79,0,.72,0,1.1.2,1.08a1,1,0,0,0,.45-.15,4.15,4.15,0,0,0,1-.85,1.54,1.54,0,0,0,.12-.25l0,0a.81.81,0,0,0,.12-.19c0-2.16,0-4.37-.06-6.5,0-4.08-.12-4.61-.36-2.66-.07.59-.18.11-.28.11,0-1.41,0-3.31,0-4.11Zm9.31-17.83c1.11-.2,2.85-.4,4.86-.56.82-.07,3.78-.11,4.56-.07,2.6.15,5.22.17,7.71.15l6.22-.07-.66-.32-1.28-.3-2.38-.65-9.39,0c-4.35-.09-7.24.07-10.78.15l-12.47.3v.23a12.79,12.79,0,0,0,.38,1.38c.07.18.17.09.23-.12l.17-.7a7.28,7.28,0,0,1,1.83.41c.75.42,1.34.29,5.67.36A27.7,27.7,0,0,0,312.61,360.89Zm18.92,36.55c1.06,0,2.55,0,3.36-.1,5.05-.36,2.82-1-3.5-1.24-6.72-.29-13.92-.15-20.86-.21h-5.6l-.62.11,17.61,1.1L323,397l-1.08.27Z"/></svg>